# xmcd
#
# Track frame offsets:
#	150
#	18262
#	40837
#	64238
#	84488
#	102788
#	121838
#	145087
#	168488
#	188737
#
# Disc length: 2764 seconds
# Revision: 0
# Processed by: cddbd v1.5.2PL0 Copyright (c) Steve Scherf et al.
# Submitted via: dBpowerAMP V12.0
#
DISCID=7a0aca0a
DTITLE=Cercueil - Erostrate
DYEAR=2010
DGENRE=Alternative
TTITLE0=Boredom's Magnetic Eyes
TTITLE1=After Dark
TTITLE2=Slave Wave
TTITLE3=Jumping War
TTITLE4=Subtitle
TTITLE5=The Guest
TTITLE6=Shade Unit
TTITLE7=A Ray Apart
TTITLE8=Things
TTITLE9=Known to None
EXTD=
EXTT0=
EXTT1=
EXTT2=
EXTT3=
EXTT4=
EXTT5=
EXTT6=
EXTT7=
EXTT8=
EXTT9=
PLAYORDER=
